<?xml version="1.0" encoding="utf-8"?>
<!-- Generator: Adobe Illustrator 25.4.1, SVG Export Plug-In . SVG Version: 6.00 Build 0)  -->
<svg version="1.1" id="图层_1" xmlns="http://www.w3.org/2000/svg" xmlns:xlink="http://www.w3.org/1999/xlink" x="0px" y="0px"
	 viewBox="0 0 1920 1080" style="enable-background:new 0 0 1920 1080;" xml:space="preserve">
<style type="text/css">
	.st0{fill:#FFFFFF;}
</style>
<g>
	<path class="st0" d="M190.01,689.54c0-1.69,0.75-2.75,1.24-3.87c4.7-10.76,9.45-21.5,14.19-32.24
		c5.6-12.68,11.22-25.36,16.84-38.03c0.3-0.69,0.62-1.36,0.91-2.06c0.43-1.05,1.2-1.52,2.34-1.5c2.62,0.06,5.25,0.12,7.87,0.14
		c10.62,0.08,21.25,0.14,31.87,0.21c5.87,0.04,11.75,0.1,17.62,0.15c1.12,0.01,2.23-0.02,3.17-0.03c0.66-0.58,0.39-1.06,0.23-1.49
		c-0.75-1.99-1.55-3.95-2.3-5.94c-7.75-20.57-15.53-41.12-23.24-61.71c-6.48-17.31-12.87-34.65-19.3-51.98
		c-0.17-0.46-0.37-0.92-0.58-1.37c-0.04-0.09-0.2-0.19-0.28-0.18c-0.22,0.04-0.52,0.09-0.62,0.24c-0.27,0.41-0.47,0.87-0.66,1.33
		c-0.7,1.74-1.38,3.48-2.07,5.22c-4.45,11.13-8.94,22.25-13.35,33.39c-5.65,14.28-11.21,28.6-16.88,42.88
		c-2.77,6.96-5.73,13.85-8.54,20.8c-7.26,17.95-14.49,35.9-21.72,53.86c-5.41,13.44-10.81,26.88-16.23,40.32
		c-0.23,0.56-0.34,1.2-0.82,1.58c-0.29,0.1-0.52,0.25-0.76,0.25c-28.62,0.03-57.25,0.05-85.87,0.07c-0.62,0-1.23-0.07-1.75-0.1
		c-0.46-0.56-0.32-1.02-0.13-1.48c2.57-6.1,5.14-12.2,7.72-18.3c7.6-17.94,15.22-35.87,22.81-53.82
		c6.91-16.34,13.82-32.67,20.66-49.04c7.17-17.17,14.25-34.39,21.38-51.57c5.36-12.92,10.75-25.83,16.14-38.74
		c9.19-22.02,18.39-44.03,27.59-66.04c0.67-1.61,1.32-3.24,2-4.85c0.29-0.68,0.65-1.33,1.02-2.07c0.91-0.08,1.77-0.21,2.63-0.21
		c4.62-0.05,9.25-0.09,13.87-0.09c25.25-0.01,50.5,0,75.75,0.01c3.25,0,6.5,0.07,9.75,0.1c0.99,0.01,1.61,0.48,1.97,1.41
		c1.56,4.08,3.13,8.16,4.73,12.23c5.73,14.52,11.49,29.03,17.2,43.56c7.58,19.3,15.13,38.6,22.68,57.91
		c5.73,14.66,11.43,29.32,17.14,43.99c7.52,19.32,15,38.66,22.55,57.97c8.23,21.05,16.53,42.08,24.79,63.12
		c0.55,1.4,1.1,2.79,1.61,4.2c0.16,0.45,0.2,0.94,0.29,1.36c-0.21,0.14-0.3,0.22-0.4,0.27c-0.11,0.05-0.23,0.13-0.35,0.13
		c-70.87,0.02-141.75,0.04-212.62,0.06C191.48,689.6,190.86,689.56,190.01,689.54z"/>
	<path class="st0" d="M1033.01,689.42c-0.99,0.08-1.73,0.18-2.46,0.18c-2.5,0.02-5,0-7.5,0c-36.51,0-73.01,0-109.52-0.01
		c-20.34,0-39.62-4.69-57.94-13.35c-11.5-5.44-21.72-12.81-30.95-21.56c-15.52-14.71-26.7-32.28-34.15-52.26
		c-3.02-8.09-5.52-16.33-7.2-24.8c-1.36-6.87-2.29-13.79-2.86-20.78c-0.68-8.24-0.82-16.48-0.52-24.73
		c0.72-19.52,4.36-38.44,11.81-56.57c6.89-16.77,16.73-31.55,29.9-44.02c12.42-11.75,26.7-20.52,42.95-26.01
		c1.18-0.4,2.39-0.73,3.6-1.02c1.1-0.27,1.59,0.16,1.62,1.36c0.03,1.12,0.03,2.25,0.02,3.37c-0.03,41.38-0.07,82.76-0.1,124.14
		c0,4.88,0,9.75,0.04,14.63c0.05,6.94,1.44,13.65,3.72,20.18c5.04,14.46,15.03,23.9,29.43,28.75c5.12,1.72,10.4,2.69,15.82,2.69
		c3.25,0,6.5,0.04,9.75,0.05c33.01,0.01,66.01-0.01,99.02,0.02c6.66,0.01,5.77-0.85,5.78,5.75c0.03,26,0.02,52.01,0.01,78.01
		C1033.27,685.31,1033.41,687.18,1033.01,689.42z"/>
	<path class="st0" d="M564.09,689.15c-0.04-1.37-0.1-2.61-0.1-3.84c-0.01-10.87-0.02-21.75-0.02-32.62
		c-0.01-66.24-0.01-132.48-0.02-198.71c0-4.62-0.04-9.25-0.04-13.87c0-0.62,0.08-1.24,0.2-1.85c0.04-0.2,0.32-0.47,0.51-0.49
		c0.99-0.11,1.99-0.19,2.98-0.19c23.62-0.01,47.25-0.02,70.87,0c1.09,0,2.25-0.26,3.41,0.52c0.06,0.76,0.19,1.62,0.19,2.47
		c0.08,10.75,0.14,21.49,0.21,32.24c0,0.62,0.03,1.25,0.12,1.86c0.02,0.16,0.3,0.3,0.49,0.4c0.07,0.04,0.27-0.02,0.32-0.1
		c0.4-0.63,0.81-1.26,1.17-1.91c4.69-8.43,11-15.44,18.63-21.29c7.71-5.91,16.17-10.37,25.56-12.97c4.94-1.37,9.97-2.24,15.07-2.85
		c5.48-0.65,10.97-0.75,16.47-0.77c9.5-0.04,19-0.05,28.5-0.07c1.12,0,2.25,0.03,3.37,0.09c0.83,0.04,1.3,0.58,1.35,1.48
		c0.03,0.62,0.04,1.25,0.04,1.87c0.02,24.87,0.03,49.74,0.04,74.61c0,1.12-0.05,2.25-0.15,3.37c-0.03,0.34-0.3,0.65-0.45,0.95
		c-1.41,0.4-2.8,0.22-4.16,0.23c-13.87,0.02-27.75,0.01-41.62,0.03c-3.25,0-6.5-0.03-9.75,0.12c-6.63,0.3-13.19,1.05-19.59,2.94
		c-3.36,0.99-6.64,2.21-9.73,3.86c-9.47,5.05-15.97,12.65-19.36,22.86c-1.38,4.16-2.2,8.45-3.01,12.75
		c-0.67,3.58-0.84,7.18-0.84,10.81c0.03,36.62,0.03,73.24,0.04,109.86c0,1.75,0,3.5,0,5.25c0,3.6,0.13,3.43-3.51,3.43
		c-24.5,0-49,0-73.49-0.01C566.67,689.59,565.53,689.79,564.09,689.15z"/>
	<path class="st0" d="M1679.59,403.74c0.53-0.11,1.13-0.31,1.73-0.33c1.75-0.06,3.5-0.07,5.25-0.07
		c23.88-0.03,47.75-0.05,71.63-0.07c1.75,0,3.5,0.01,5.25,0.09c0.59,0.03,1.16,0.31,1.66,0.45c0.48,1.38,0.31,2.64,0.31,3.88
		c0.02,6.37,0.03,12.75,0.02,19.12c-0.03,54-0.05,107.99-0.09,161.99c0,5-0.13,10-0.17,15c-0.01,1.32-0.43,2.35-1.4,3.31
		c-9.46,9.45-18.89,18.94-28.32,28.43c-6.43,6.47-12.84,12.97-19.3,19.41c-11.7,11.64-23.43,23.23-35.16,34.84
		c-0.34,0.34-0.64,0.79-1.24,0.67c-0.09-0.05-0.22-0.09-0.27-0.17c-0.07-0.1-0.1-0.24-0.1-0.36c0-10,0.01-20,0-30
		c-0.03-85.12-0.05-170.24-0.07-255.36C1679.32,404.34,1679.46,404.11,1679.59,403.74z"/>
	<path class="st0" d="M517.21,594.29c0,30,0.02,60-0.01,89.99c-0.01,6.2,0.87,5.3-5.37,5.31c-24.25,0.03-48.5,0.01-72.75,0.01
		c-1.12,0-2.25,0-3.37-0.03c-0.98-0.03-1.42-0.43-1.46-1.31c-0.03-0.75-0.03-1.5-0.03-2.25c0.06-59.87,0.13-119.74,0.19-179.61
		c0-1.37,0-2.75,0.01-4.12c0.04-3.37,0.05-3.37,3.24-3.41c0.37,0,0.75,0,1.13,0c24.38-0.01,48.75-0.01,73.13-0.02
		c0.87,0,1.75,0,2.62,0.02c2.57,0.06,2.67,0.15,2.68,2.81c0.02,3.12,0,6.25,0,9.37c0,27.75,0,55.5,0,83.25
		C517.22,594.29,517.22,594.29,517.21,594.29z"/>
	<path class="st0" d="M961.7,490.51c-22.37,0-44.74,0.01-67.1,0c-5.14,0-4.69,0.41-4.69-4.6c-0.02-25.99-0.01-51.98-0.01-77.97
		c0-0.87-0.01-1.75,0.02-2.62c0.06-1.59,0.36-1.9,2.06-1.95c1.87-0.05,3.75-0.07,5.62-0.07c42.36-0.01,84.72-0.01,127.09-0.01
		c2.25,0,4.5,0.05,6.75,0.12c1.15,0.04,1.63,0.52,1.68,1.57c0.04,1,0.05,2,0.05,3c0.01,25.99,0.01,51.98,0.01,77.97
		c0,0.75,0,1.5-0.02,2.25c-0.06,2.04-0.33,2.3-2.47,2.32c-2.62,0.02-5.25-0.01-7.87-0.01C1002.44,490.51,982.07,490.51,961.7,490.51
		C961.7,490.51,961.7,490.51,961.7,490.51z"/>
	<path class="st0" d="M1209.17,693c-5.86-0.19-12.49-0.33-19.05-1.32c-12.04-1.8-23.67-5.06-34.82-9.97
		c-22.68-9.99-41.46-24.92-56.4-44.64c-10.51-13.87-18.46-29.08-23.09-45.93c-1.72-6.27-3.16-12.6-4.05-19.04
		c-1-7.32-1.26-14.69-1.21-22.07c0.02-2,0.09-4,0.15-6c0.2-7.15,1.27-14.18,2.77-21.15c4.71-21.88,14.07-41.58,28.09-59.01
		c20.2-25.12,46.02-41.44,77.39-48.93c6.57-1.57,13.24-2.49,19.97-3.11c5.24-0.48,10.48-0.59,15.73-0.43
		c25.29,0.74,48.7,7.77,70.13,21.25c17.2,10.82,31.24,24.89,42.37,41.82c9,13.69,15.28,28.6,19.05,44.57
		c1.69,7.19,2.89,14.45,3.53,21.8c0.11,1.24,0.16,2.5,0.18,3.74c0.04,3,0.04,6,0.07,9c0.16,17.33-3.17,34.03-9.35,50.16
		c-5.5,14.35-13.29,27.42-23.19,39.18c-19.87,23.6-44.86,39.04-74.81,46.4C1231.91,691.97,1220.97,693.04,1209.17,693z
		 M1210.13,424.72c-11.41-0.16-17.37,0.46-26.79,2.57c-18.69,4.18-35.57,12.25-50.65,24.09c-11.63,9.13-21.34,19.94-28.91,32.65
		c-1.98,3.33-3.92,6.68-5.74,10.1c-8.94,16.7-13.66,34.53-14.17,53.46c-0.2,7.51,0.09,14.98,1.15,22.43c1,7.07,2.48,14.03,4.72,20.8
		c6.26,18.93,16.31,35.63,30.14,49.97c14.56,15.1,31.82,26.07,51.72,32.8c7.94,2.69,16.04,4.77,24.39,5.69
		c3.23,0.36,6.47,0.61,9.71,0.83c8.02,0.56,15.98-0.06,23.89-1.38c8.03-1.34,15.78-3.71,23.44-6.43c21-7.46,38.47-20.06,52.93-36.82
		c11.64-13.5,20.01-28.94,25.28-45.99c3.64-11.77,5.32-23.88,5.42-36.19c0.03-4.37-0.04-8.76-0.49-13.1
		c-0.92-8.96-2.92-17.74-5.47-26.37c-4.14-14.05-10.87-26.82-19.44-38.64c-5.45-7.52-11.9-14.15-18.96-20.17
		c-5.43-4.63-11.05-8.98-17.24-12.57c-9.22-5.34-18.91-9.61-29.1-12.75c-9.36-2.88-18.91-4.61-28.7-4.97
		C1214.88,424.64,1212.5,424.72,1210.13,424.72z"/>
	<path class="st0" d="M1646.86,548c-0.15,18.95-2.14,33.51-6.55,47.7c-4.37,14.08-11.03,27.02-19.55,39.04
		c-11.44,16.16-25.66,29.31-42.61,39.46c-11.19,6.7-23.11,11.84-35.82,14.98c-7.29,1.8-14.68,2.96-22.18,3.51
		c-8.38,0.62-16.75,0.38-25.1-0.24c-5.36-0.4-10.65-1.35-15.91-2.48c-24.27-5.21-45.5-16.36-63.87-32.94
		c-14.26-12.88-25.64-28-33.76-45.45c-5.19-11.15-8.86-22.79-10.8-34.97c-1.62-10.16-2.29-20.37-1.87-30.63
		c0.55-13.57,3.11-26.78,7.61-39.6c5.52-15.72,13.45-30.09,24.04-42.96c15.46-18.8,34.39-32.97,57-42.08
		c9.29-3.74,18.9-6.39,28.82-7.98c11.68-1.88,23.4-2.25,35.14-1.19c16.2,1.47,31.68,5.69,46.3,12.88
		c24.65,12.11,44.16,29.91,58.54,53.27c8.59,13.96,14.46,29.03,17.71,45.12C1645.92,532.89,1646.92,542.91,1646.86,548z
		 M1510.91,680.36c2.95,0.06,7.45-0.22,11.91-0.76c7.58-0.93,15-2.64,22.24-5.06c8.9-2.98,17.58-6.47,25.61-11.39
		c7.04-4.32,13.76-9.05,19.87-14.66c4.8-4.41,9.48-8.9,13.56-13.97c14.18-17.67,23.76-37.48,27.57-59.92
		c1.09-6.41,1.76-12.87,1.82-19.38c0.05-5.5,0.01-10.98-0.62-16.47c-0.64-5.59-1.5-11.13-2.83-16.6c-1.82-7.43-4.54-14.52-7.5-21.55
		c-4.85-11.5-11.51-21.87-19.37-31.49c-6.36-7.78-13.88-14.37-21.95-20.33c-19.95-14.74-42.32-22.73-67.1-23.85
		c-6.11-0.28-12.23-0.16-18.35,0.44c-9,0.88-17.77,2.68-26.32,5.58c-20.65,7.01-38.39,18.55-53.1,34.63
		c-14.33,15.66-24.25,33.83-30.1,54.23c-1.55,5.41-2.53,10.95-3.16,16.54c-0.71,6.34-0.98,12.7-0.9,19.08
		c0.09,7.14,0.8,14.2,2.16,21.21c4.58,23.54,15.11,44.12,31.28,61.7c16.06,17.46,35.48,29.78,58.31,36.62
		C1485.49,678.4,1497.27,680.29,1510.91,680.36z"/>
	<path class="st0" d="M1704.47,689.61c-0.05-0.37-0.2-0.68-0.1-0.82c0.45-0.6,0.94-1.16,1.47-1.7c5.96-6.06,11.9-12.14,17.89-18.17
		c18.5-18.62,37.03-37.22,55.54-55.82c0.97-0.97,1.94-1.94,2.92-2.92c1.05-0.04,2.05-0.12,3.04-0.12
		c19.75-0.01,39.5-0.01,59.25-0.01c3.56,0,3.51-0.11,3.51,3.48c-0.01,24-0.01,48-0.02,71.99c0,1-0.06,2-0.11,2.99
		c-0.02,0.49-0.47,0.94-0.94,0.98c-0.37,0.04-0.74,0.08-1.12,0.09c-0.75,0.01-1.5,0.01-2.25,0.01c-45.25,0-90.5,0-135.75,0
		C1706.69,689.61,1705.57,689.61,1704.47,689.61z"/>
	<path class="st0" d="M475.74,388.07c20.96-0.11,39.84,13.53,45.59,33.95c1.36,4.84,2.14,9.78,1.79,14.8
		c-1.12,16.1-8.15,28.86-21.75,37.77c-6.48,4.25-13.61,6.7-21.36,7.36c-14.29,1.23-26.63-3.21-36.91-13.05
		c-7.83-7.49-12.3-16.81-13.8-27.6c-1.07-7.72-0.32-15.23,2.43-22.46c6.11-16.06,17.79-25.85,34.4-29.81
		C469.41,388.25,472.79,387.88,475.74,388.07z"/>
	<path class="st0" d="M1244.03,438.48c-0.14,0.94-0.82,1.36-1.3,1.91c-2.14,2.44-4.33,4.85-6.43,7.33
		c-7.44,8.82-12.53,18.92-16.06,29.85c-1.92,5.95-3.49,12-4.31,18.21c-0.55,4.21-1.1,8.43-1.04,12.69c0.04,3,0.02,6,0.04,9
		c0,0.24,0.11,0.48,0.22,0.88c1.42,0.94,3.15,1.02,4.87,1.07c0.18,0.01,0.45-0.25,0.54-0.45c0.15-0.33,0.22-0.71,0.27-1.07
		c0.54-4.21,0.97-8.44,1.62-12.64c2.56-16.47,8.78-31.46,18.59-44.93c4.43-6.08,9.74-11.39,15.24-16.51c0.27-0.25,0.62-0.4,0.9-0.58
		c5.19,1.39,15.07,6.99,23.38,13.25c4.79,3.6,7.63,6.17,8.57,7.76c-0.68,0.32-1.34,0.67-2.03,0.96c-4.84,2.05-9.48,4.49-14.08,7.02
		c-7.29,4-13.76,9.09-19.51,15.08c-7.66,7.97-14.24,16.76-19.37,26.58c-1.5,2.88-2.84,5.84-4.21,8.78c-0.48,1.03-0.32,1.5,0.6,2.27
		c0.86,0.72,1.74,1.41,2.73,2.2c0.4-0.36,0.83-0.62,1.08-1c1.11-1.66,2.19-3.34,3.26-5.03c6.73-10.65,15.05-19.93,24.51-28.21
		c4.16-3.64,8.74-6.68,13.55-9.36c6.79-3.78,13.96-6.68,21.38-8.98c0.36-0.11,0.72-0.2,1.09-0.27c0.78-0.14,1.49-0.03,2.06,0.58
		c0.26,0.27,0.52,0.54,0.76,0.83c0.65,0.76,1.32,1.5,1.92,2.3c5.7,7.63,10.74,15.66,14.54,24.42c0.55,1.26,1.02,2.55,1.5,3.84
		c0.08,0.22,0.01,0.49,0.01,0.74c-0.31,0.46-0.81,0.44-1.3,0.42c-3.25-0.1-6.5-0.29-9.74-0.3c-11.76-0.02-23.09,2.33-34.04,6.51
		c-10,3.81-19.05,9.33-27.43,15.96c-1.27,1.01-2.54,2.03-3.77,3.09c-0.94,0.81-1.83,1.67-2.83,2.58c0.64,1.6,1.53,2.91,2.34,4.12
		c0.88,0.12,1.35-0.34,1.85-0.67c7.73-5.13,15.93-9.35,24.44-13.02c6.46-2.78,13.2-4.56,20.13-5.71c7.3-1.21,14.65-1.64,22.04-1.32
		c3.49,0.15,6.98,0.48,10.47,0.77c0.74,0.06,1.46,0.3,2.31,0.49c0.24,0.54,0.57,1.07,0.73,1.66c3.13,11.42,4.39,23.05,3.9,34.88
		c-0.02,0.37-0.11,0.74-0.19,1.1c-0.02,0.1-0.14,0.18-0.23,0.27c-0.81,0.32-1.43-0.23-2.05-0.56c-3.86-2.06-7.86-3.83-11.93-5.44
		c-7.71-3.04-15.68-5.14-23.89-6.12c-6.95-0.83-13.95-1.03-20.96-0.5c-6,0.45-11.93,1.23-17.78,2.59c-2.17,0.51-4.34,1.06-6.33,1.76
		c-0.18,0.4-0.35,0.62-0.36,0.85c-0.1,1.36-0.17,2.72,0.12,4.13c0.4,0.12,0.74,0.34,1.07,0.31c2.74-0.25,5.47-0.56,8.21-0.83
		c1.24-0.12,2.49-0.21,3.74-0.24c3.25-0.07,6.5-0.07,9.75-0.13c7.93-0.15,15.68,1.11,23.4,2.74c12.1,2.54,23.32,7.32,34.04,13.37
		c0.43,0.25,0.9,0.48,1.25,0.82c0.25,0.24,0.48,0.66,0.45,0.98c-0.1,1.12-0.29,2.23-0.5,3.33c-2.15,10.97-5.58,21.51-10.47,31.56
		c-0.22,0.44-0.51,0.85-0.78,1.27c-0.06,0.09-0.19,0.14-0.29,0.21c-0.83-0.18-1.15-0.92-1.61-1.49
		c-11.82-15.03-26.49-26.38-43.93-34.21c-6.65-2.98-13.59-4.98-20.71-6.39c-1.1-0.22-2.2-0.47-3.31-0.63
		c-0.85-0.12-1.72-0.12-2.58-0.18c-0.98,1.3-1.52,2.68-2.08,4.23c0.83,0.36,1.6,0.76,2.41,1.03c8.32,2.76,16.31,6.29,23.97,10.55
		c9.45,5.26,18.07,11.62,25.64,19.36c5.7,5.83,10.59,12.31,14.99,19.31c-0.37,0.66-0.67,1.34-1.08,1.94
		c-5.48,7.82-11.84,14.84-19.14,21c-1.81,1.53-3.7,2.98-5.56,4.45c-0.39,0.31-0.82,0.58-1.54,0.27c-1.45-8.92-4.12-17.58-7.95-25.89
		c-2.68-5.81-6.01-11.23-9.68-16.46c-3.6-5.13-7.62-9.9-12.09-14.3c-3.83-3.78-7.82-7.39-12.32-10.37
		c-1.34-0.89-2.59-1.94-4.21-2.56c-1.19,0.99-2.32,1.93-3.33,2.77c-0.13,0.78,0.22,1.15,0.57,1.5c2.21,2.21,4.45,4.39,6.64,6.62
		c9.28,9.45,16.76,20.16,22.31,32.2c4,8.68,6.69,17.75,7.86,27.25c0.29,2.35,0.85,4.67,0.59,7.02c-2.83,2.31-7.66,4.91-14.49,7.81
		c-8.26,3.51-15.34,5.67-20.81,6.32c-0.06-0.32-0.22-0.66-0.16-0.96c0.7-3.43,1.51-6.83,2.13-10.27c1.15-6.41,1.86-12.88,1.6-19.39
		c-0.47-11.94-2.66-23.56-6.84-34.79c-2.61-6.99-4.97-11.93-8.75-18.19c-0.57-0.43-1.19-0.31-1.8-0.16
		c-0.73,0.18-1.44,0.4-2.15,0.64c-0.35,0.11-0.67,0.3-1.11,0.5c0.09,0.49,0.11,0.99,0.26,1.43c0.89,2.6,1.82,5.19,2.74,7.78
		c3.09,8.75,5.09,17.74,6.12,26.98c0.73,6.49,0.85,12.99,0.44,19.47c-0.59,9.27-2.49,18.3-5.62,27.06
		c-0.13,0.35-0.24,0.72-0.41,1.05c-0.3,0.58-0.77,0.98-1.44,1.07c-0.49,0.07-1,0.11-1.49,0.12c-5.12,0.02-10.24,0.07-15.36-0.39
		c-6.37-0.58-12.61-1.75-18.8-3.29c-0.72-0.18-1.4-0.47-1.99-0.67c-0.34-0.73,0.1-1.05,0.38-1.42c2.33-3.1,4.74-6.13,6.97-9.29
		c6.69-9.46,11.83-19.69,14.9-30.9c2.05-7.5,3.35-15.13,3.52-22.91c0.1-4.75,0.03-9.5,0.01-14.25c0-0.61-0.11-1.22-0.15-1.75
		c-3.14-1.2-3.14-1.2-5.59-1.14c-0.1,0.45-0.26,0.92-0.31,1.4c-0.21,2.36-0.42,4.73-0.57,7.1c-0.67,10.06-3.3,19.66-6.66,29.12
		c-5.33,15.03-14.19,27.73-25.29,39c-0.17,0.17-0.42,0.26-0.63,0.38c-0.24,0.01-0.52,0.11-0.73,0.03
		c-11.07-4.53-21.18-10.67-30.35-18.33c-0.65-0.55-1.47-0.98-1.73-2.06c0.19-0.19,0.39-0.51,0.67-0.65c1.45-0.72,2.93-1.39,4.4-2.08
		c5.89-2.79,11.5-6.05,16.72-9.95c5.03-3.75,9.54-8.07,13.74-12.71c9.06-10.03,16.14-21.28,20.92-33.95
		c0.26-0.69,0.42-1.41,0.64-2.14c-1.06-1.2-2.32-2.01-3.43-2.86c-0.83,0.06-1.14,0.6-1.48,1.14c-2.13,3.38-4.18,6.82-6.43,10.13
		c-7.3,10.71-15.95,20.19-26.15,28.21c-4.33,3.41-8.98,6.34-13.9,8.83c-4.69,2.37-9.51,4.41-14.39,6.34
		c-1.07,0.42-1.94,0.21-2.68-0.66c-1.62-1.9-3.31-3.75-4.86-5.71c-5.74-7.29-10.73-15.06-14.34-23.65c-0.29-0.68-0.48-1.4-0.7-2.11
		c-0.03-0.11,0.03-0.24,0.06-0.48c0.45-0.06,0.92-0.17,1.4-0.19c1.25-0.04,2.5-0.06,3.75-0.05c9.33,0.11,18.4-1.52,27.37-3.92
		c14.86-3.98,27.97-11.28,39.81-20.97c1.55-1.27,3.05-2.59,4.55-3.91c0.46-0.41,0.84-0.9,1.33-1.43c-0.71-1.51-1.31-2.98-2.36-4.14
		c-1.22,0.03-1.94,0.79-2.76,1.32c-6.41,4.15-13.09,7.78-20.02,11c-7.74,3.59-15.8,6.19-24.17,7.81c-3.56,0.69-7.1,1.47-10.71,1.79
		c-1.99,0.18-3.98,0.44-5.97,0.47c-5,0.07-10,0.04-15,0.04c-0.62,0-1.23-0.09-1.92-0.15c-0.29-0.59-0.65-1.11-0.82-1.69
		c-1.69-5.5-2.93-11.11-3.77-16.8c-1-6.82-1.19-13.69-0.93-20.57c0.01-0.33,0.21-0.66,0.32-1c1.25,0.01,2.17,0.73,3.14,1.23
		c5.34,2.75,10.81,5.18,16.53,7.02c12.02,3.87,24.32,5.7,36.94,4.82c8.24-0.57,16.37-1.91,24.29-4.35c0.6-0.18,1.18-0.4,1.76-0.63
		c0.23-0.09,0.43-0.25,0.73-0.43c0.4-1.28,0.23-2.65,0.15-4.01c-0.03-0.48-0.54-0.91-1.02-0.89c-0.37,0.02-0.75,0.03-1.12,0.09
		c-9.04,1.56-18.17,1.65-27.29,1.26c-3.85-0.16-7.7-0.84-11.51-1.5c-6.66-1.14-13.21-2.75-19.54-5.12
		c-7.17-2.68-13.93-6.16-20.27-10.44c-0.52-0.35-1.01-0.73-1.49-1.13c-0.18-0.15-0.27-0.41-0.48-0.73c0.15-2.02,0.68-4.07,1.16-6.12
		c2.27-9.66,5.76-18.86,10.44-27.61c0.35-0.65,0.79-1.27,1.24-1.85c0.09-0.12,0.53-0.13,0.67-0.01c0.39,0.3,0.73,0.68,1.05,1.06
		c1.78,2.1,3.49,4.25,5.31,6.31c14.73,16.61,32.78,27.96,54.16,33.97c2.88,0.81,5.84,1.32,8.78,1.91c0.58,0.12,1.21,0.02,1.91,0.02
		c0.74-1.38,1.26-2.75,1.87-4.22c-0.53-0.31-0.92-0.64-1.37-0.79c-8.34-2.73-16.22-6.51-23.89-10.73
		c-11.39-6.27-21.35-14.31-29.76-24.27c-3.72-4.4-7.25-8.93-10.24-13.86c-0.39-0.64-0.74-1.3-1.19-2.09
		c1.82-3.22,4.09-6.18,6.41-9.1c5.9-7.38,12.96-13.52,20.45-19.2c0.39-0.3,0.76-0.61,1.31-0.49c0.69,0.67,0.65,1.59,0.75,2.44
		c0.99,8.37,3.25,16.4,6.46,24.18c1.43,3.47,3.16,6.79,5.04,10.04c6.97,12.02,15.83,22.45,26.54,31.29c1.82,1.5,3.61,3.06,5.5,4.35
		c2.29-1.19,2.29-1.19,3.98-3.37c-0.15-0.95-0.97-1.4-1.56-2c-3.26-3.28-6.4-6.68-9.39-10.21c-6.01-7.09-11.07-14.81-15.21-23.12
		c-4.2-8.44-7.06-17.33-8.58-26.65c-0.75-4.57-1.2-9.16-1.37-13.79c-0.03-0.95,0.28-1.65,1.21-2.1c10.4-4.94,20.99-9.36,32.41-11.4
		c0.97-0.17,1.93-0.4,2.76-0.57c0.72,0.47,0.52,0.98,0.4,1.44c-0.86,3.26-1.82,6.49-2.59,9.77c-2.04,8.68-3.05,17.48-2.58,26.4
		c0.46,8.77,1.95,17.37,4.64,25.75c2.18,6.79,4.96,13.34,8.06,19.76c0.27,0.56,0.59,1.1,0.91,1.64c0.06,0.1,0.2,0.14,0.49,0.33
		c1.54-0.28,3.24-0.53,4.83-1.32c0.01-1.22-0.48-2.22-0.86-3.25c-2.52-6.81-4.38-13.8-5.73-20.93c-1.29-6.78-1.78-13.63-1.59-20.52
		c0.14-4.99,0.42-9.98,1.13-14.95c1.13-7.97,3.22-15.65,6.58-22.97c0.36-0.79,0.79-1.55,1.26-2.46c0.82-0.08,1.67-0.24,2.52-0.25
		c10.82-0.17,21.42,1.35,31.87,4.08c0.97,0.25,1.94,0.47,2.89,0.77C1243.23,438,1243.63,438.28,1244.03,438.48z"/>
	<path class="st0" d="M1513.28,586.48c-0.18,1.22,0.32,2.12,0.65,3.04c1.84,5.18,3.63,10.37,5,15.7c2.51,9.73,3.77,19.6,3.71,29.66
		c-0.07,11.1-1.98,21.87-5.48,32.37c-0.32,0.95-0.67,1.88-1.04,2.81c-0.14,0.34-0.38,0.64-0.63,1.06c-1.36,0.63-2.87,0.32-4.34,0.36
		c-10.69,0.27-21.19-1.08-31.54-3.72c-0.83-0.21-1.71-0.33-2.38-1.2c0.43-0.56,0.87-1.16,1.33-1.73
		c6.36-7.93,11.8-16.44,16.05-25.69c3.89-8.46,6.42-17.31,7.73-26.52c1.02-7.2,1.26-14.44,1.16-21.69c-0.02-1.5-0.12-2.99-0.41-4.56
		c-1.63-0.67-3.21-1.27-4.96-1.04c-0.66,1.15-0.43,2.31-0.59,3.4c-0.14,0.99-0.27,1.98-0.35,2.98c-1.02,13.09-4.53,25.55-9.66,37.57
		c-4.15,9.73-9.84,18.52-16.82,26.47c-1.65,1.88-3.32,3.74-5,5.59c-0.41,0.45-0.91,0.82-1.32,1.18
		c-10.1-3.64-26.62-13.9-32.44-20.14c0.21-0.25,0.38-0.61,0.66-0.76c1.1-0.6,2.23-1.13,3.35-1.68c6.05-3.01,11.95-6.27,17.32-10.41
		c6.17-4.75,11.62-10.25,16.62-16.2c7.71-9.17,13.6-19.42,18.08-30.51c0.23-0.57,0.41-1.17,0.6-1.76c0.04-0.11-0.01-0.25-0.01-0.37
		c-0.14-0.2-0.24-0.45-0.42-0.6c-1.07-0.84-2.17-1.66-3.22-2.46c-1.07,0.31-1.28,1.22-1.69,1.95c-3.02,5.34-6.39,10.45-10.12,15.31
		c-5.65,7.36-12.03,14.04-19.09,20.07c-7.19,6.13-15.23,10.89-23.88,14.63c-2.29,0.99-4.61,1.93-6.91,2.89
		c-1.05,0.43-1.93,0.22-2.67-0.67c-1.61-1.91-3.3-3.76-4.85-5.72c-5.69-7.18-10.56-14.87-14.15-23.33
		c-0.39-0.91-0.92-1.78-0.79-2.91c0.32-0.1,0.65-0.28,0.99-0.29c1.37-0.05,2.75-0.06,4.12-0.07c17.36-0.09,33.58-4.53,48.75-12.86
		c5.7-3.13,11.25-6.51,16.34-10.58c2.05-1.64,4.04-3.35,6.04-5.06c0.46-0.4,0.84-0.89,1.14-1.22c0.26-1.19-0.53-1.8-0.86-2.58
		c-0.29-0.68-0.7-1.3-0.98-1.8c-0.71-0.34-1.13-0.04-1.55,0.22c-1.7,1.05-3.41,2.08-5.11,3.14c-6.49,4.03-13.31,7.41-20.29,10.49
		c-6.31,2.79-12.93,4.59-19.66,6.04c-3.91,0.85-7.86,1.46-11.82,1.97c-1.11,0.14-2.24,0.24-3.36,0.25
		c-5.25,0.04-10.5,0.05-15.75,0.04c-0.85,0-1.71-0.18-2.61-0.28c-1.64-3.93-2.4-7.98-3.21-12c-1.7-8.49-2.18-17.1-1.91-25.74
		c0.02-0.71-0.16-1.49,0.49-2.13c1.15,0.01,2.06,0.73,3.04,1.23c5.24,2.67,10.59,5.05,16.2,6.85c11.53,3.69,23.32,5.58,35.44,4.96
		c8.89-0.46,17.61-2,26.16-4.53c0.59-0.17,1.13-0.51,1.74-0.79c0.27-1.63,0.38-3.21-0.15-4.84c-0.83,0-1.58-0.1-2.29,0.02
		c-8.93,1.5-17.92,1.59-26.92,1.17c-3.6-0.17-7.2-0.81-10.76-1.41c-7.28-1.23-14.4-3.13-21.26-5.87
		c-6.87-2.74-13.32-6.3-19.43-10.46c-0.41-0.28-0.76-0.63-1.09-0.91c0.65-9.61,7.57-28.49,13.04-36.58
		c0.38,0.33,0.79,0.61,1.09,0.98c1.2,1.44,2.36,2.91,3.53,4.38c11.44,14.22,25.75,24.64,42.37,31.99
		c6.18,2.74,12.55,4.91,19.17,6.34c1.47,0.32,2.93,0.57,4.47,0.46c1.02-1.21,1.47-2.63,2.02-3.99c-0.26-0.7-0.9-0.87-1.45-1.06
		c-8.56-2.9-16.55-7.04-24.37-11.49c-16.2-9.23-28.99-22-38.63-37.94c-0.32-0.52-0.56-1.1-0.79-1.57c3.97-8.23,19-23.05,27.74-28.22
		c0.16,0.3,0.4,0.57,0.46,0.88c0.66,3.31,1.21,6.64,1.95,9.92c2.12,9.46,5.71,18.34,10.57,26.73c7.49,12.93,17.14,23.95,29.08,32.96
		c0.59,0.44,1.22,0.82,1.82,1.23c0.45-0.23,0.82-0.33,1.08-0.57c0.92-0.82,1.98-1.49,2.58-2.47c0.06-0.89-0.54-1.24-0.95-1.67
		c-3.95-4.18-7.98-8.29-11.51-12.84c-8.6-11.05-15.36-23.07-19.22-36.61c-2.31-8.09-3.59-16.34-3.69-24.76
		c0-0.37,0.09-0.73,0.13-1.06c5.84-4.27,24.36-10.92,36.21-12.99c0.08,0.32,0.28,0.68,0.21,0.97c-0.8,3.02-1.77,5.99-2.46,9.03
		c-1.22,5.36-2.17,10.77-2.56,16.27c-0.28,3.87-0.58,7.72-0.38,11.6c0.64,12.73,3.47,24.97,8.46,36.69c1.27,2.99,2.71,5.9,4.1,8.84
		c0.26,0.55,0.61,1.06,0.86,1.49c0.42,0.06,0.68,0.18,0.89,0.12c1.2-0.33,2.39-0.7,3.58-1.07c0.12-0.04,0.26-0.09,0.32-0.19
		c0.13-0.2,0.35-0.44,0.31-0.63c-0.11-0.61-0.28-1.21-0.5-1.79c-1.97-5.4-3.59-10.91-4.95-16.5c-1.01-4.13-1.68-8.31-2.19-12.54
		c-0.53-4.36-0.7-8.72-0.63-13.1c0.18-10.57,1.82-20.89,5.26-30.91c1.09-3.19,2.34-6.32,3.99-9.14c1.01-0.68,2.03-0.53,3.02-0.54
		c9.93-0.11,19.69,1.21,29.32,3.58c1.94,0.48,3.87,0.99,5.75,1.47c0.26,0.6,0.03,0.99-0.31,1.38c-2.36,2.75-4.75,5.48-7.05,8.27
		c-8.14,9.9-13.62,21.19-17.27,33.41c-1.72,5.75-2.91,11.63-3.69,17.58c-0.16,1.24-0.18,2.49-0.27,3.74
		c-0.33,4.62-0.17,9.25-0.1,13.87c0.01,0.49,0.12,0.97,0.17,1.31c0.77,0.84,1.67,0.88,2.51,1.04c2.97,0.57,3.14,0.44,3.37-2.64
		c0.66-9.01,2.26-17.84,5.06-26.44c4.11-12.62,10.4-24.06,18.86-34.28c3.35-4.05,6.97-7.86,10.75-11.5
		c0.35-0.34,0.78-0.61,1.13-0.88c9.5,2.86,25.4,13.97,31.88,20.91c-0.39,0.29-0.73,0.67-1.15,0.82c-5.43,1.96-10.45,4.75-15.4,7.68
		c-8.69,5.13-16.23,11.61-22.86,19.22c-7.36,8.45-13.37,17.75-17.97,27.97c-0.41,0.91-0.8,1.83-1.15,2.77
		c-0.34,0.88-0.2,1.43,0.5,1.99c0.88,0.7,1.77,1.37,2.7,2.01c0.15,0.1,0.54,0.06,0.68-0.07c0.36-0.33,0.69-0.72,0.96-1.13
		c1.3-1.99,2.56-4,3.85-5.99c5.53-8.54,12.1-16.16,19.56-23.11c11.11-10.36,24.09-17.27,38.44-21.86c0.24-0.08,0.49-0.2,0.72-0.17
		c0.48,0.05,1.01,0.09,1.4,0.32c0.41,0.24,0.7,0.7,1.03,1.08c7.53,8.97,13.6,18.82,17.91,29.73c0.18,0.45,0.25,0.94,0.4,1.5
		c-0.42,0.15-0.74,0.38-1.05,0.38c-2.62-0.04-5.25-0.15-7.87-0.18c-14.61-0.15-28.53,3.07-41.76,9.11
		c-9.49,4.34-18.05,10.19-25.75,17.25c-0.64,0.59-1.21,1.25-1.86,1.93c0.6,1.43,1.36,2.7,2.12,3.72c0.77,0.36,1.18,0.01,1.59-0.24
		c0.75-0.45,1.49-0.92,2.21-1.41c7.31-4.86,15.08-8.83,23.17-12.22c6.25-2.62,12.76-4.32,19.45-5.37c6.56-1.03,13.16-1.57,19.8-1.34
		c4.24,0.15,8.48,0.53,12.72,0.81c0.25,0.02,0.49,0.08,0.74,0.14c0.65,0.16,1.15,0.55,1.32,1.19c0.59,2.3,1.18,4.59,1.71,6.91
		c2.19,9.58,2.57,19.3,2.15,29.07c-0.01,0.24-0.15,0.46-0.24,0.76c-0.33,0-0.72,0.11-1.01-0.02c-1.03-0.45-2.02-0.98-3.03-1.48
		c-6.41-3.14-13.03-5.71-19.9-7.64c-8.11-2.28-16.39-3.34-24.8-3.4c-8.91-0.07-17.72,0.79-26.4,2.81c-1.22,0.28-2.46,0.49-3.62,0.93
		c-1.14,0.43-2.59,0.26-3.39,1.37c-0.5,0.71-0.28,2.81,0.27,4.87c1.19-0.11,2.41-0.23,3.63-0.33c1.12-0.09,2.25-0.13,3.37-0.25
		c9.11-0.96,18.22-1.06,27.3,0.17c8.43,1.14,16.73,2.92,24.76,5.79c7.08,2.53,13.84,5.74,20.35,9.48c0.43,0.25,0.83,0.55,1.11,0.74
		c0.5,0.7,0.34,1.32,0.23,1.93c-1.8,10.91-4.93,21.41-9.67,31.41c-0.63,1.33-1.02,2.82-2.07,3.89c-0.93-0.13-1.28-0.85-1.75-1.41
		c-2.19-2.56-4.31-5.19-6.59-7.68c-10.89-11.9-23.91-20.76-38.67-27.15c-7.15-3.09-14.64-5-22.27-6.39
		c-0.71-0.13-1.47-0.02-2.36-0.02c-0.67,1.32-1.34,2.64-2.09,4.12c0.87,0.38,1.63,0.79,2.44,1.06c8.78,2.97,17.21,6.74,25.21,11.42
		c15.27,8.93,27.76,20.77,37.26,35.72c0.53,0.83,0.98,1.71,1.5,2.65c-3.83,5.54-7.99,10.68-12.62,15.43
		c-4.2,4.3-8.62,8.35-13.48,11.89c-0.28,0.2-0.68,0.23-1.09,0.35c-0.82-3.57-1.61-7.07-2.44-10.56c-0.81-3.41-1.87-6.75-3.22-9.98
		c-1.39-3.34-2.78-6.7-4.44-9.91c-1.66-3.21-3.56-6.31-5.54-9.34c-1.91-2.92-3.95-5.78-6.15-8.5c-2.27-2.82-4.7-5.52-7.24-8.11
		c-2.45-2.5-5.07-4.83-7.7-7.13c-2.72-2.38-5.66-4.48-8.83-6.44c-1.42,1.09-2.83,2.05-4.07,3.41c0.88,0.89,1.66,1.69,2.46,2.47
		c5.38,5.24,10.54,10.67,15,16.73c8.3,11.3,14.5,23.6,17.83,37.28c1.24,5.11,1.97,10.3,2.56,15.52c0.08,0.73,0.01,1.48,0.01,2.27
		c-0.66,0.47-1.23,0.94-1.87,1.31c-9.65,5.68-19.94,9.77-30.86,12.25c-0.72,0.16-1.48,0.2-2.22,0.28c-0.51,0.05-0.91-0.44-0.8-0.97
		c0.08-0.37,0.18-0.73,0.26-1.09c1.12-5,2.21-10,2.85-15.09c0.65-5.1,0.9-10.21,0.71-15.34c-0.55-14.67-4.02-28.65-10.11-41.99
		c-0.93-2.04-1.97-4.05-3.1-5.99c-0.67-1.16-0.86-2.64-2.16-3.4C1516.27,585.64,1514.72,585.96,1513.28,586.48z"/>
</g>
</svg>
